<svg xmlns="http://www.w3.org/2000/svg" xmlns:xlink="http://www.w3.org/1999/xlink" version="1.1" width="1000" height="1000" viewBox="0 0 1000 1000" xml:space="preserve">
<desc>Created with Fabric.js 3.5.0</desc>
<defs>
</defs>
<rect x="0" y="0" width="100%" height="100%" fill="#ffffff"/>
<g transform="matrix(47.8468 0 0 47.8468 499.9995 484.4118)" id="909862">
<path style="stroke: rgb(56,65,93); stroke-width: 40; stroke-dasharray: none; stroke-linecap: butt; stroke-dashoffset: 0; stroke-linejoin: miter; stroke-miterlimit: 4; is-custom-font: none; font-file-url: none; fill: rgb(255,255,255); fill-rule: evenodd; opacity: 1;" vector-effect="non-scaling-stroke" transform=" translate(-9.5003, -9)" d="M 6.69871 4.58966 C 7.42979 2.93116 8.82013 0.000488281 9.51634 0.000488281 C 10.5274 -0.000511719 12.7421 5.68649 12.7421 5.68649 C 12.7421 5.68649 14.7923 5.86549 16.4493 6.04849 C 17.3289 6.14549 18.8997 6.29349 18.998 6.77849 C 19.019 6.88349 18.8927 7.31249 18.663 7.61149 C 17.69 8.88149 15.1654 11.6025 15.1654 11.6025 C 15.1654 11.6025 15.3038 12.9025 15.4272 14.3245 C 15.5064 15.2445 15.7201 17.1085 15.6428 17.4415 C 15.5586 17.8085 15.4071 17.9085 15.2497 17.9665 C 14.8384 18.1165 13.8835 17.5335 12.7682 16.9995 C 11.2486 16.2705 9.54141 15.4915 9.54141 15.4915 C 9.54141 15.4915 8.41501 16.0805 7.07998 16.6555 C 5.65367 17.2695 4.20931 18.2815 3.60649 17.9255 C 3.23035 17.7025 3.50919 15.9645 3.65363 14.4175 C 3.78904 12.9585 3.90639 11.6255 3.90639 11.6255 C 3.90639 11.6255 3.06987 10.6435 2.09592 9.59349 C 1.04375 8.45849 -0.239128 7.23349 0.0387113 6.78349 C 0.248344 6.44349 1.20523 6.26149 2.81209 6.06249 C 4.51924 5.85049 6.22439 5.70049 6.22439 5.70049 C 6.22439 5.70049 6.41022 5.24412 6.69871 4.58966 Z" stroke-linecap="round"/>
</g>
</svg>