<?xml version="1.0" encoding="utf-8"?>
<svg viewBox="0 0 13.138 19.836" fill="none" xmlns="http://www.w3.org/2000/svg">
  <defs>
    <clipPath id="clip0_10844_706">
      <rect width="137" height="25" fill="white"/>
    </clipPath>
  </defs>
  <g clip-path="url(#clip0_10844_706)">
    <path d="M27.08 17L31.384 6.328H29.864L26.264 15.544L22.664 6.328H21.144L25.432 17H27.08ZM33.5594 8.168C34.0074 8.168 34.3754 7.816 34.3754 7.368C34.3754 6.92 34.0074 6.552 33.5594 6.552C33.1274 6.552 32.7594 6.92 32.7594 7.368C32.7594 7.816 33.1274 8.168 33.5594 8.168ZM34.1674 17V9.272H32.9674V17H34.1674ZM40.2854 17.192C41.5494 17.192 42.5894 16.776 43.3574 16.008L42.7814 15.224C42.1734 15.848 41.2774 16.2 40.3974 16.2C38.7334 16.2 37.7094 14.984 37.6134 13.528H43.8694V13.224C43.8694 10.904 42.4934 9.08 40.1574 9.08C37.9494 9.08 36.3494 10.888 36.3494 13.128C36.3494 15.544 37.9974 17.192 40.2854 17.192ZM42.6854 12.648H37.6134C37.6774 11.464 38.4934 10.072 40.1414 10.072C41.9014 10.072 42.6694 11.496 42.6854 12.648ZM52.4652 17V11.576C52.4652 9.896 51.6172 9.08 50.0012 9.08C48.8492 9.08 47.7932 9.752 47.2492 10.392V9.272H46.0492V17H47.2492V11.352C47.6972 10.728 48.5932 10.152 49.5372 10.152C50.5772 10.152 51.2652 10.584 51.2652 11.944V17H52.4652ZM61.5139 17V11.576C61.5139 9.896 60.6659 9.08 59.0499 9.08C57.8979 9.08 56.8419 9.752 56.2979 10.392V9.272H55.0979V17H56.2979V11.352C56.7459 10.728 57.6419 10.152 58.5859 10.152C59.6259 10.152 60.3139 10.584 60.3139 11.944V17H61.5139ZM70.1786 17V11.688C70.1786 9.816 68.8186 9.08 67.1866 9.08C65.9226 9.08 64.9306 9.496 64.0986 10.36L64.6586 11.192C65.3466 10.456 66.0986 10.12 67.0266 10.12C68.1466 10.12 68.9786 10.712 68.9786 11.752V13.144C68.3546 12.424 67.4746 12.088 66.4186 12.088C65.1066 12.088 63.7146 12.904 63.7146 14.632C63.7146 16.312 65.1066 17.192 66.4186 17.192C67.4586 17.192 68.3386 16.824 68.9786 16.12V17H70.1786ZM66.8506 16.328C65.7306 16.328 64.9466 15.624 64.9466 14.648C64.9466 13.656 65.7306 12.952 66.8506 12.952C67.6986 12.952 68.5146 13.272 68.9786 13.912V15.368C68.5146 16.008 67.6986 16.328 66.8506 16.328ZM74.4363 16.616C74.4363 15.848 73.9563 15.4 73.4283 15.4C72.9483 15.4 72.5803 15.8 72.5803 16.264C72.5803 16.744 72.9003 17.08 73.3483 17.08C73.4283 17.08 73.5403 17.064 73.5723 17.048C73.5083 17.576 73.0443 18.2 72.5323 18.536L73.1243 19.032C73.8603 18.504 74.4363 17.592 74.4363 16.616ZM90.2891 17L85.9851 6.328H84.3371L80.0491 17H81.5691L82.5131 14.632H87.8251L88.7691 17H90.2891ZM87.4251 13.448H82.8971L85.1691 7.704L87.4251 13.448ZM98.1011 17V9.272H96.9011V14.952C96.4531 15.576 95.5571 16.12 94.6131 16.12C93.5731 16.12 92.8851 15.72 92.8851 14.36V9.272H91.6851V14.728C91.6851 16.408 92.5331 17.192 94.1491 17.192C95.3011 17.192 96.3091 16.584 96.9011 15.912V17H98.1011ZM103.182 17.192C105.182 17.192 106.222 16.152 106.222 14.856C106.222 11.848 101.438 12.968 101.438 11.272C101.438 10.584 102.094 10.056 103.15 10.056C104.142 10.056 104.99 10.472 105.454 11.032L106.014 10.2C105.39 9.576 104.462 9.08 103.15 9.08C101.31 9.08 100.27 10.104 100.27 11.304C100.27 14.168 105.054 13.016 105.054 14.888C105.054 15.656 104.414 16.216 103.23 16.216C102.174 16.216 101.198 15.704 100.686 15.112L100.062 15.976C100.846 16.808 101.918 17.192 103.182 17.192ZM110.359 17.192C111.063 17.192 111.495 16.984 111.799 16.696L111.447 15.8C111.287 15.976 110.967 16.12 110.631 16.12C110.103 16.12 109.847 15.704 109.847 15.128V10.328H111.415V9.272H109.847V7.16H108.647V9.272H107.367V10.328H108.647V15.384C108.647 16.536 109.223 17.192 110.359 17.192ZM114.547 17V11.528C114.899 10.904 115.907 10.296 116.643 10.296C116.835 10.296 116.979 10.312 117.123 10.344V9.112C116.067 9.112 115.171 9.704 114.547 10.52V9.272H113.347V17H114.547ZM119.456 8.168C119.904 8.168 120.272 7.816 120.272 7.368C120.272 6.92 119.904 6.552 119.456 6.552C119.024 6.552 118.656 6.92 118.656 7.368C118.656 7.816 119.024 8.168 119.456 8.168ZM120.064 17V9.272H118.864V17H120.064ZM128.726 17V11.688C128.726 9.816 127.366 9.08 125.734 9.08C124.47 9.08 123.478 9.496 122.646 10.36L123.206 11.192C123.894 10.456 124.646 10.12 125.574 10.12C126.694 10.12 127.526 10.712 127.526 11.752V13.144C126.902 12.424 126.022 12.088 124.966 12.088C123.654 12.088 122.262 12.904 122.262 14.632C122.262 16.312 123.654 17.192 124.966 17.192C126.006 17.192 126.886 16.824 127.526 16.12V17H128.726ZM125.398 16.328C124.278 16.328 123.494 15.624 123.494 14.648C123.494 13.656 124.278 12.952 125.398 12.952C126.246 12.952 127.062 13.272 127.526 13.912V15.368C127.062 16.008 126.246 16.328 125.398 16.328Z" fill="#878D9D"/>
    <path fill-rule="evenodd" clip-rule="evenodd" d="M6.5 19C6.5 19 13 12.9706 13 8C13 3.02944 10.0899 1 6.5 1C2.91015 1 0 3.02944 0 8C0 12.9706 6.5 19 6.5 19ZM6.5 11C8.433 11 10 9.433 10 7.5C10 5.567 8.433 4 6.5 4C4.567 4 3 5.567 3 7.5C3 9.433 4.567 11 6.5 11Z" fill="#878D9D"/>
  </g>
</svg>