<?xml version="1.0" encoding="utf-8"?>
<svg viewBox="0 0 10 10" fill="none" xmlns="http://www.w3.org/2000/svg">
  <path fill-rule="evenodd" clip-rule="evenodd" d="M3.52575 2.55003C3.91053 1.62864 4.64229 0.000488281 5.00871 0.000488281C5.54085 -6.72744e-05 6.70647 3.15938 6.70647 3.15938C6.70647 3.15938 7.78552 3.25882 8.65763 3.36049C9.12061 3.41438 9.94731 3.4966 9.99905 3.76604C10.0101 3.82438 9.94362 4.06271 9.82273 4.22882C9.31065 4.93438 7.9819 6.44604 7.9819 6.44604C7.9819 6.44604 8.05476 7.16827 8.11969 7.95827C8.16139 8.46938 8.27384 9.50493 8.23319 9.68993C8.18884 9.89382 8.10913 9.94938 8.02625 9.9816C7.8098 10.0649 7.30723 9.74104 6.7202 9.44438C5.92041 9.03938 5.02191 8.6066 5.02191 8.6066C5.02191 8.6066 4.42907 8.93382 3.72642 9.25327C2.97573 9.59438 2.21554 10.1566 1.89827 9.95882C1.7003 9.83493 1.84706 8.86938 1.92308 8.00993C1.99435 7.19938 2.05611 6.45882 2.05611 6.45882C2.05611 6.45882 1.61583 5.91327 1.10323 5.32993C0.549456 4.69938 -0.125741 4.01882 0.02049 3.76882C0.130823 3.57993 0.63445 3.47882 1.48016 3.36827C2.37866 3.25049 3.27611 3.16716 3.27611 3.16716C3.27611 3.16716 3.37392 2.91362 3.52575 2.55003Z" style="fill: rgb(230, 233, 242);"/>
</svg>